<?xml version="1.0" encoding="UTF-8"?>
<svg width="650" height="450" xmlns="http://www.w3.org/2000/svg">
  <defs>
    <marker id="arrowhead" markerWidth="10" markerHeight="7" 
     refX="0" refY="3.5" orient="auto">
      <polygon points="0 0, 10 3.5, 0 7" fill="#666" />
    </marker>
  </defs>
  
  <!-- 背景 -->
  <rect width="650" height="450" fill="#f8f9fa" stroke="#dee2e6" stroke-width="2"/>
  
  <!-- 标题 -->
  <text x="325" y="30" text-anchor="middle" font-family="Arial, sans-serif" font-size="18" font-weight="bold" fill="#212529">代谢模块结构分析</text>
  
  <!-- 糖酵解模块 -->
  <rect x="50" y="60" width="180" height="120" fill="#e3f2fd" stroke="#1976d2" stroke-width="2" rx="10"/>
  <text x="140" y="80" text-anchor="middle" font-family="Arial, sans-serif" font-size="14" font-weight="bold" fill="#1976d2">糖酵解模块</text>
  
  <!-- 糖酵解反应 -->
  <circle cx="80" cy="110" r="12" fill="#fff3e0" stroke="#f57c00" stroke-width="2"/>
  <text x="80" y="115" text-anchor="middle" font-family="Arial, sans-serif" font-size="8" fill="#f57c00">Glc</text>
  
  <circle cx="120" cy="110" r="12" fill="#fff3e0" stroke="#f57c00" stroke-width="2"/>
  <text x="120" y="115" text-anchor="middle" font-family="Arial, sans-serif" font-size="8" fill="#f57c00">G6P</text>
  
  <circle cx="160" cy="110" r="12" fill="#fff3e0" stroke="#f57c00" stroke-width="2"/>
  <text x="160" y="115" text-anchor="middle" font-family="Arial, sans-serif" font-size="8" fill="#f57c00">F6P</text>
  
  <circle cx="200" cy="110" r="12" fill="#fff3e0" stroke="#f57c00" stroke-width="2"/>
  <text x="200" y="115" text-anchor="middle" font-family="Arial, sans-serif" font-size="8" fill="#f57c00">FBP</text>
  
  <circle cx="100" cy="140" r="12" fill="#e8f5e8" stroke="#388e3c" stroke-width="2"/>
  <text x="100" y="145" text-anchor="middle" font-family="Arial, sans-serif" font-size="8" fill="#388e3c">G3P</text>
  
  <circle cx="140" cy="140" r="12" fill="#e8f5e8" stroke="#388e3c" stroke-width="2"/>
  <text x="140" y="145" text-anchor="middle" font-family="Arial, sans-serif" font-size="8" fill="#388e3c">PEP</text>
  
  <circle cx="180" cy="140" r="12" fill="#fce4ec" stroke="#c2185b" stroke-width="2"/>
  <text x="180" y="145" text-anchor="middle" font-family="Arial, sans-serif" font-size="8" fill="#c2185b">PYR</text>
  
  <!-- 连接线 -->
  <line x1="92" y1="110" x2="108" y2="110" stroke="#666" stroke-width="1.5" marker-end="url(#arrowhead)"/>
  <line x1="132" y1="110" x2="148" y2="110" stroke="#666" stroke-width="1.5" marker-end="url(#arrowhead)"/>
  <line x1="172" y1="110" x2="188" y2="110" stroke="#666" stroke-width="1.5" marker-end="url(#arrowhead)"/>
  <line x1="200" y1="122" x2="110" y2="128" stroke="#666" stroke-width="1.5" marker-end="url(#arrowhead)"/>
  <line x1="112" y1="140" x2="128" y2="140" stroke="#666" stroke-width="1.5" marker-end="url(#arrowhead)"/>
  <line x1="152" y1="140" x2="168" y2="140" stroke="#666" stroke-width="1.5" marker-end="url(#arrowhead)"/>
  
  <!-- TCA循环模块 -->
  <rect x="280" y="60" width="180" height="120" fill="#e8f5e8" stroke="#388e3c" stroke-width="2" rx="10"/>
  <text x="370" y="80" text-anchor="middle" font-family="Arial, sans-serif" font-size="14" font-weight="bold" fill="#388e3c">TCA循环模块</text>
  
  <!-- TCA循环代谢物 -->
  <circle cx="320" cy="110" r="12" fill="#fff3e0" stroke="#f57c00" stroke-width="2"/>
  <text x="320" y="115" text-anchor="middle" font-family="Arial, sans-serif" font-size="8" fill="#f57c00">AcCoA</text>
  
  <circle cx="370" cy="100" r="12" fill="#e0f2f1" stroke="#00695c" stroke-width="2"/>
  <text x="370" y="105" text-anchor="middle" font-family="Arial, sans-serif" font-size="8" fill="#00695c">CIT</text>
  
  <circle cx="420" cy="110" r="12" fill="#e0f2f1" stroke="#00695c" stroke-width="2"/>
  <text x="420" y="115" text-anchor="middle" font-family="Arial, sans-serif" font-size="8" fill="#00695c">αKG</text>
  
  <circle cx="420" cy="150" r="12" fill="#e0f2f1" stroke="#00695c" stroke-width="2"/>
  <text x="420" y="155" text-anchor="middle" font-family="Arial, sans-serif" font-size="8" fill="#00695c">SUC</text>
  
  <circle cx="370" cy="160" r="12" fill="#e0f2f1" stroke="#00695c" stroke-width="2"/>
  <text x="370" y="165" text-anchor="middle" font-family="Arial, sans-serif" font-size="8" fill="#00695c">FUM</text>
  
  <circle cx="320" cy="150" r="12" fill="#e0f2f1" stroke="#00695c" stroke-width="2"/>
  <text x="320" y="155" text-anchor="middle" font-family="Arial, sans-serif" font-size="8" fill="#00695c">OAA</text>
  
  <!-- TCA循环连接 -->
  <line x1="332" y1="110" x2="358" y2="105" stroke="#666" stroke-width="1.5" marker-end="url(#arrowhead)"/>
  <line x1="382" y1="100" x2="408" y2="110" stroke="#666" stroke-width="1.5" marker-end="url(#arrowhead)"/>
  <line x1="420" y1="122" x2="420" y2="138" stroke="#666" stroke-width="1.5" marker-end="url(#arrowhead)"/>
  <line x1="408" y1="150" x2="382" y2="160" stroke="#666" stroke-width="1.5" marker-end="url(#arrowhead)"/>
  <line x1="358" y1="160" x2="332" y2="150" stroke="#666" stroke-width="1.5" marker-end="url(#arrowhead)"/>
  <line x1="320" y1="138" x2="320" y2="122" stroke="#666" stroke-width="1.5" marker-end="url(#arrowhead)"/>
  
  <!-- 氨基酸合成模块 -->
  <rect x="50" y="200" width="180" height="120" fill="#fff3e0" stroke="#f57c00" stroke-width="2" rx="10"/>
  <text x="140" y="220" text-anchor="middle" font-family="Arial, sans-serif" font-size="14" font-weight="bold" fill="#f57c00">氨基酸合成模块</text>
  
  <!-- 氨基酸 -->
  <circle cx="80" cy="250" r="12" fill="#e1f5fe" stroke="#0277bd" stroke-width="2"/>
  <text x="80" y="255" text-anchor="middle" font-family="Arial, sans-serif" font-size="8" fill="#0277bd">Ala</text>
  
  <circle cx="120" cy="250" r="12" fill="#e1f5fe" stroke="#0277bd" stroke-width="2"/>
  <text x="120" y="255" text-anchor="middle" font-family="Arial, sans-serif" font-size="8" fill="#0277bd">Ser</text>
  
  <circle cx="160" cy="250" r="12" fill="#e1f5fe" stroke="#0277bd" stroke-width="2"/>
  <text x="160" y="255" text-anchor="middle" font-family="Arial, sans-serif" font-size="8" fill="#0277bd">Glu</text>
  
  <circle cx="200" cy="250" r="12" fill="#e1f5fe" stroke="#0277bd" stroke-width="2"/>
  <text x="200" y="255" text-anchor="middle" font-family="Arial, sans-serif" font-size="8" fill="#0277bd">Asp</text>
  
  <circle cx="100" cy="280" r="12" fill="#e1f5fe" stroke="#0277bd" stroke-width="2"/>
  <text x="100" y="285" text-anchor="middle" font-family="Arial, sans-serif" font-size="8" fill="#0277bd">Val</text>
  
  <circle cx="140" cy="280" r="12" fill="#e1f5fe" stroke="#0277bd" stroke-width="2"/>
  <text x="140" y="285" text-anchor="middle" font-family="Arial, sans-serif" font-size="8" fill="#0277bd">Leu</text>
  
  <circle cx="180" cy="280" r="12" fill="#e1f5fe" stroke="#0277bd" stroke-width="2"/>
  <text x="180" y="285" text-anchor="middle" font-family="Arial, sans-serif" font-size="8" fill="#0277bd">Ile</text>
  
  <!-- 核苷酸合成模块 -->
  <rect x="280" y="200" width="180" height="120" fill="#f3e5f5" stroke="#7b1fa2" stroke-width="2" rx="10"/>
  <text x="370" y="220" text-anchor="middle" font-family="Arial, sans-serif" font-size="14" font-weight="bold" fill="#7b1fa2">核苷酸合成模块</text>
  
  <!-- 核苷酸 -->
  <circle cx="320" cy="250" r="12" fill="#e8eaf6" stroke="#303f9f" stroke-width="2"/>
  <text x="320" y="255" text-anchor="middle" font-family="Arial, sans-serif" font-size="8" fill="#303f9f">AMP</text>
  
  <circle cx="370" cy="250" r="12" fill="#e8eaf6" stroke="#303f9f" stroke-width="2"/>
  <text x="370" y="255" text-anchor="middle" font-family="Arial, sans-serif" font-size="8" fill="#303f9f">GMP</text>
  
  <circle cx="420" cy="250" r="12" fill="#e8eaf6" stroke="#303f9f" stroke-width="2"/>
  <text x="420" y="255" text-anchor="middle" font-family="Arial, sans-serif" font-size="8" fill="#303f9f">CMP</text>
  
  <circle cx="345" cy="280" r="12" fill="#e8eaf6" stroke="#303f9f" stroke-width="2"/>
  <text x="345" y="285" text-anchor="middle" font-family="Arial, sans-serif" font-size="8" fill="#303f9f">UMP</text>
  
  <circle cx="395" cy="280" r="12" fill="#e8eaf6" stroke="#303f9f" stroke-width="2"/>
  <text x="395" y="285" text-anchor="middle" font-family="Arial, sans-serif" font-size="8" fill="#303f9f">TMP</text>
  
  <!-- 脂肪酸合成模块 -->
  <rect x="480" y="60" width="150" height="260" fill="#ffebee" stroke="#d32f2f" stroke-width="2" rx="10"/>
  <text x="555" y="80" text-anchor="middle" font-family="Arial, sans-serif" font-size="14" font-weight="bold" fill="#d32f2f">脂肪酸合成</text>
  
  <!-- 脂肪酸合成步骤 -->
  <circle cx="520" cy="110" r="12" fill="#fff3e0" stroke="#f57c00" stroke-width="2"/>
  <text x="520" y="115" text-anchor="middle" font-family="Arial, sans-serif" font-size="8" fill="#f57c00">AcCoA</text>
  
  <circle cx="590" cy="110" r="12" fill="#fff3e0" stroke="#f57c00" stroke-width="2"/>
  <text x="590" y="115" text-anchor="middle" font-family="Arial, sans-serif" font-size="8" fill="#f57c00">MalCoA</text>
  
  <circle cx="555" cy="150" r="12" fill="#e0f2f1" stroke="#00695c" stroke-width="2"/>
  <text x="555" y="155" text-anchor="middle" font-family="Arial, sans-serif" font-size="8" fill="#00695c">C4</text>
  
  <circle cx="555" cy="190" r="12" fill="#e0f2f1" stroke="#00695c" stroke-width="2"/>
  <text x="555" y="195" text-anchor="middle" font-family="Arial, sans-serif" font-size="8" fill="#00695c">C6</text>
  
  <circle cx="555" cy="230" r="12" fill="#e0f2f1" stroke="#00695c" stroke-width="2"/>
  <text x="555" y="235" text-anchor="middle" font-family="Arial, sans-serif" font-size="8" fill="#00695c">C8</text>
  
  <circle cx="555" cy="270" r="12" fill="#ffcdd2" stroke="#d32f2f" stroke-width="2"/>
  <text x="555" y="275" text-anchor="middle" font-family="Arial, sans-serif" font-size="8" fill="#d32f2f">C16</text>
  
  <!-- 脂肪酸合成连接 -->
  <line x1="532" y1="110" x2="543" y2="145" stroke="#666" stroke-width="1.5" marker-end="url(#arrowhead)"/>
  <line x1="578" y1="110" x2="567" y2="145" stroke="#666" stroke-width="1.5" marker-end="url(#arrowhead)"/>
  <line x1="555" y1="162" x2="555" y2="178" stroke="#666" stroke-width="1.5" marker-end="url(#arrowhead)"/>
  <line x1="555" y1="202" x2="555" y2="218" stroke="#666" stroke-width="1.5" marker-end="url(#arrowhead)"/>
  <line x1="555" y1="242" x2="555" y2="258" stroke="#666" stroke-width="1.5" marker-end="url(#arrowhead)"/>
  
  <!-- 模块间连接 -->
  <line x1="180" y1="152" x2="308" y2="110" stroke="#999" stroke-width="2" stroke-dasharray="5,5" marker-end="url(#arrowhead)"/>
  <line x1="180" y1="140" x2="90" y2="238" stroke="#999" stroke-width="2" stroke-dasharray="5,5" marker-end="url(#arrowhead)"/>
  <line x1="320" y1="138" x2="190" y2="238" stroke="#999" stroke-width="2" stroke-dasharray="5,5" marker-end="url(#arrowhead)"/>
  <line x1="320" y1="110" x2="508" y2="110" stroke="#999" stroke-width="2" stroke-dasharray="5,5" marker-end="url(#arrowhead)"/>
  
  <!-- 中心性分析 -->
  <rect x="50" y="340" width="550" height="80" fill="#fff8e1" stroke="#ff8f00" stroke-width="2" rx="10"/>
  <text x="325" y="360" text-anchor="middle" font-family="Arial, sans-serif" font-size="14" font-weight="bold" fill="#ff8f00">网络中心性分析</text>
  
  <!-- 中心性指标 -->
  <rect x="70" y="370" width="120" height="40" fill="#e3f2fd" stroke="#1976d2" stroke-width="1" rx="5"/>
  <text x="130" y="385" text-anchor="middle" font-family="Arial, sans-serif" font-size="10" fill="#1976d2">度中心性</text>
  <text x="130" y="400" text-anchor="middle" font-family="Arial, sans-serif" font-size="8" fill="#1976d2">连接数量</text>
  
  <rect x="210" y="370" width="120" height="40" fill="#e8f5e8" stroke="#388e3c" stroke-width="1" rx="5"/>
  <text x="270" y="385" text-anchor="middle" font-family="Arial, sans-serif" font-size="10" fill="#388e3c">介数中心性</text>
  <text x="270" y="400" text-anchor="middle" font-family="Arial, sans-serif" font-size="8" fill="#388e3c">路径经过频率</text>
  
  <rect x="350" y="370" width="120" height="40" fill="#fce4ec" stroke="#c2185b" stroke-width="1" rx="5"/>
  <text x="410" y="385" text-anchor="middle" font-family="Arial, sans-serif" font-size="10" fill="#c2185b">接近中心性</text>
  <text x="410" y="400" text-anchor="middle" font-family="Arial, sans-serif" font-size="8" fill="#c2185b">平均距离</text>
  
  <rect x="490" y="370" width="100" height="40" fill="#f3e5f5" stroke="#7b1fa2" stroke-width="1" rx="5"/>
  <text x="540" y="385" text-anchor="middle" font-family="Arial, sans-serif" font-size="10" fill="#7b1fa2">模块化系数</text>
  <text x="540" y="400" text-anchor="middle" font-family="Arial, sans-serif" font-size="8" fill="#7b1fa2">社区结构</text>
</svg>